<svg id="Group_32" data-name="Group 32" xmlns="http://www.w3.org/2000/svg" xmlns:xlink="http://www.w3.org/1999/xlink" width="40" height="40" viewBox="0 0 40 40">
  <defs>
    <clipPath id="clip-path">
      <rect id="Rectangle_32" data-name="Rectangle 32" width="40" height="40" fill="#fff"/>
    </clipPath>
  </defs>
  <g id="Group_31" data-name="Group 31" clip-path="url(#clip-path)">
    <path id="Path_22" data-name="Path 22" d="M39.037,13.856H35.85a13.651,13.651,0,0,0-1.15-2.883,3.4,3.4,0,0,0,1.638-2.849V5.485a.92.92,0,0,0-.963-.866H28.13a17.171,17.171,0,0,0-3.509-1.353V.866A.918.918,0,0,0,23.661,0H16.339a.918.918,0,0,0-.961.866v2.4a17.281,17.281,0,0,0-3.509,1.353H4.622a.918.918,0,0,0-.961.866V8.124A3.389,3.389,0,0,0,5.3,10.972a13.651,13.651,0,0,0-1.15,2.883H.961A.917.917,0,0,0,0,14.722v2.639a3.721,3.721,0,0,0,3.89,3.505h.262A13.573,13.573,0,0,0,5.3,23.753H4.622a.917.917,0,0,0-.961.866v2.639a3.721,3.721,0,0,0,3.89,3.505H9.016a4.1,4.1,0,0,0,2.5-.836,17.072,17.072,0,0,0,3.176,1.341L13.4,35.629H3.158a.92.92,0,0,0-.963.866v2.639A.919.919,0,0,0,3.158,40H36.842a.918.918,0,0,0,.961-.866V36.495a.919.919,0,0,0-.961-.866h-.5V33.856a2.319,2.319,0,0,0-2.426-2.186H32.449a2.318,2.318,0,0,0-2.426,2.186v1.773H26.6L25.3,31.268a17.03,17.03,0,0,0,3.178-1.341,4.1,4.1,0,0,0,2.5.836h1.465a3.723,3.723,0,0,0,3.89-3.505V24.619a.919.919,0,0,0-.963-.866H34.7a13.5,13.5,0,0,0,1.153-2.887h.26A3.723,3.723,0,0,0,40,17.361V14.722a.919.919,0,0,0-.963-.866M29.014,6.37H34.4v2.6a3.417,3.417,0,0,1-1.748.924,3.959,3.959,0,0,1-1.9,0,3.427,3.427,0,0,1-1.739-.917ZM17.324,1.785h5.388v2.6a3.417,3.417,0,0,1-1.748.924,3.959,3.959,0,0,1-1.9,0,3.436,3.436,0,0,1-1.741-.915ZM5.585,6.28h5.386v2.6A3.417,3.417,0,0,1,9.223,9.8a4.316,4.316,0,0,1-.948.115,4.319,4.319,0,0,1-.95-.115,3.427,3.427,0,0,1-1.739-.917Zm-.99,12.945a4.316,4.316,0,0,1-.948-.115,3.425,3.425,0,0,1-1.741-.917V15.586H7.293v2.6a3.417,3.417,0,0,1-1.748.924,4.319,4.319,0,0,1-.95.115m6.327,8.812a3.438,3.438,0,0,1-1.748.925,4.023,4.023,0,0,1-1.9,0,3.427,3.427,0,0,1-1.739-.917V25.437h5.388Zm1.682-.16Zm19.339,5.979a.483.483,0,0,1,.505-.454h1.465a.482.482,0,0,1,.5.454v1.773H31.943Zm3.938,4.412H4.119v-.907H35.881ZM19.762,20.859a4.511,4.511,0,0,0,.472,0l2.03,6.852H17.734Zm-1.338-2.2a2.437,2.437,0,0,1-1.025-1.32,2.218,2.218,0,0,1,.245-1.849A2.771,2.771,0,0,1,20,14.255a2.914,2.914,0,0,1,1.318.31,2.315,2.315,0,0,1,1.032,3.314,2.555,2.555,0,0,1-.78.785l-.646-2.186a.979.979,0,0,0-1.177-.614.92.92,0,0,0-.679.614Zm4.339,10.814v2.6A3.424,3.424,0,0,1,21.014,33a3.967,3.967,0,0,1-1.9,0,3.427,3.427,0,0,1-1.739-.917V29.478Zm-3.5,5.244h1.466A4,4,0,0,0,23.9,33.232l.71,2.4H15.39l.71-2.4a4,4,0,0,0,3.165,1.488M27.094,6.065V8.124a3.721,3.721,0,0,0,3.89,3.505h1.465a3.714,3.714,0,0,0,.467-.028,12.177,12.177,0,0,1,.961,2.255H31.714a.917.917,0,0,0-.959.866v2.641a3.242,3.242,0,0,0,.077.68,1.209,1.209,0,0,0,.044.144l.022.063a3.085,3.085,0,0,0,.148.424,1.676,1.676,0,0,0,.09.168l.035.058a3.042,3.042,0,0,0,.212.358,1.96,1.96,0,0,0,.135.165l.04.048a3.513,3.513,0,0,0,.265.292c.055.054.115.1.176.152l.049.04a3.633,3.633,0,0,0,.319.238c.084.056.172.106.26.153a3.81,3.81,0,0,0,.364.178c.093.04.19.076.293.114.132.041.262.079.4.109.066.016.134.031.216.046a12.16,12.16,0,0,1-1.364,2.962H28.053a.917.917,0,0,0-.959.866v2.641a3.1,3.1,0,0,0,.077.673l.009.056a3.331,3.331,0,0,0,.183.529l0,.007a15,15,0,0,1-2.559,1.067l-.187-.632-.293-1-2.235-7.553a4.323,4.323,0,0,0,2.237-2.255,3.765,3.765,0,0,0-.124-3.187,4.847,4.847,0,0,0-6.124-2.062,4.013,4.013,0,0,0-2.288,5.518,4.387,4.387,0,0,0,2.113,1.986l-2.233,7.553-.295,1-.187.632a14.9,14.9,0,0,1-2.561-1.067l0-.007a3.338,3.338,0,0,0,.183-.531l.013-.069a3.217,3.217,0,0,0,.077-.66V24.619a.918.918,0,0,0-.961-.866H7.464A12.264,12.264,0,0,1,6.1,20.792c.073-.015.146-.03.218-.046.135-.031.267-.069.4-.112.1-.035.2-.071.291-.112a3.989,3.989,0,0,0,.362-.176c.088-.049.176-.1.264-.155.11-.073.214-.153.337-.252.071-.058.143-.114.205-.175.093-.094.183-.191.287-.318a2.061,2.061,0,0,0,.156-.191,3.158,3.158,0,0,0,.209-.348l.038-.064a1.768,1.768,0,0,0,.09-.172,3.3,3.3,0,0,0,.145-.416l.024-.068c.015-.048.033-.094.044-.142a3.3,3.3,0,0,0,.079-.683V14.722a.918.918,0,0,0-.961-.866H6.122A12.158,12.158,0,0,1,7.083,11.6a3.722,3.722,0,0,0,.469.028H9.016a3.722,3.722,0,0,0,3.89-3.505V6.065a15.231,15.231,0,0,1,2.838-1.1l.02.036.038.069c.051.094.114.2.176.29.046.069.1.13.146.2a3.875,3.875,0,0,0,.362.393c.02.02.04.041.062.059a3.808,3.808,0,0,0,1.151.7l.143.051a3.961,3.961,0,0,0,.542.152q.082.02.165.035a4.307,4.307,0,0,0,.718.066h1.465a4.356,4.356,0,0,0,.716-.064c.044-.008.086-.018.178-.038a4.281,4.281,0,0,0,.533-.148L22.3,6.71a3.894,3.894,0,0,0,1.153-.7l.1-.094a4.14,4.14,0,0,0,.324-.355c.051-.064.1-.127.146-.195.064-.094.121-.193.176-.294l.027-.048.033-.058M34.4,28.127a3.419,3.419,0,0,1-1.748.925,4.015,4.015,0,0,1-1.9,0,3.464,3.464,0,0,1-1.671-.866l-.018.008.013-.012c-.016-.018-.046-.03-.062-.048V25.529H34.4Zm3.628-9.851a3.417,3.417,0,0,1-1.748.924,3.959,3.959,0,0,1-1.9,0,3.436,3.436,0,0,1-1.741-.915V15.677h5.388Z" fill="#fff"/>
    <path id="Path_23" data-name="Path 23" d="M7.05,4.112,9.888,3.007A15.172,15.172,0,0,0,7.05,4.112" transform="translate(5.856 1.953)" fill="#fff"/>
    <path id="Path_24" data-name="Path 24" d="M15.948,17.05l-.064.059.005,0,.126-.063Z" transform="translate(13.194 11.074)" fill="#fff"/>
  </g>
</svg>
