<svg id="Group_54" data-name="Group 54" xmlns="http://www.w3.org/2000/svg" xmlns:xlink="http://www.w3.org/1999/xlink" width="40" height="40" viewBox="0 0 40 40">
  <defs>
    <clipPath id="clip-path">
      <rect id="Rectangle_42" data-name="Rectangle 42" width="40" height="40" fill="#fff"/>
    </clipPath>
  </defs>
  <g id="Group_53" data-name="Group 53" clip-path="url(#clip-path)">
    <path id="Path_52" data-name="Path 52" d="M15.778.067H12.587a.727.727,0,0,0-.736.718V3.9H9.641a.727.727,0,0,0-.736.718v5.99H2.767a.729.729,0,0,0-.736.72V38.405H.8a.719.719,0,1,0,0,1.438H39.1a.719.719,0,1,0,0-1.438H37.874V.785a.728.728,0,0,0-.738-.718H23.389a.727.727,0,0,0-.736.718V3.9H21.179V.785a.727.727,0,0,0-.736-.718H15.778ZM13.325,1.5h6.383V3.9H13.325Zm-2.455,36.9h-.492v-1.2a.736.736,0,0,0-1.472,0v1.2H8.414v-2.4h2.455Zm4.909-18.45v18.45H12.341V35.29a.727.727,0,0,0-.736-.718H7.678a.729.729,0,0,0-.738.718v3.115H3.5V12.047H15.778Zm.738-9.345H10.377V5.339H22.653v13.9h-5.4v-2.4h2.21a.719.719,0,1,0,0-1.438h-2.21v-2.4h2.21a.719.719,0,1,0,0-1.437h-2.21v-.24a.727.727,0,0,0-.736-.718m13.01,27.8H17.252V20.674H29.526Zm6.875,0H31V19a.737.737,0,0,0-1.474,0v.24H28.054V19a.737.737,0,0,0-1.474,0v.24H24.127V1.5H36.4Z" transform="translate(0.047 0.045)" fill="#fff"/>
    <path id="Path_53" data-name="Path 53" d="M39.15,40H.852a.831.831,0,1,1,0-1.662H1.964V11.373a.842.842,0,0,1,.852-.83H8.838V4.665a.84.84,0,0,1,.85-.83h2.1V.83a.842.842,0,0,1,.85-.83h7.857a.842.842,0,0,1,.852.83V3.835h1.243V.83A.842.842,0,0,1,23.438,0H37.186a.842.842,0,0,1,.85.83V38.338H39.15a.831.831,0,1,1,0,1.662M.852,38.562a.608.608,0,1,0,0,1.215h38.3a.608.608,0,1,0,0-1.215H37.807V.83a.616.616,0,0,0-.622-.607H23.438a.617.617,0,0,0-.623.607V4.058h-1.7V.83a.617.617,0,0,0-.623-.607H12.634a.616.616,0,0,0-.622.607V4.058H9.689a.615.615,0,0,0-.622.607v6.1H2.816a.616.616,0,0,0-.623.607V38.562Zm35.711,0h-5.63V19.042a.622.622,0,0,0-1.243,0v.352h-1.7v-.352a.622.622,0,0,0-1.243,0v.352H24.06V1.438h12.5Zm-5.4-.223h5.172V1.662H24.289V19.17h2.227v-.128a.851.851,0,0,1,1.7,0v.128h1.245v-.128a.851.851,0,0,1,1.7,0Zm-1.472.223h-12.5V20.607h12.5Zm-12.276-.223H29.461V20.83H17.414Zm-1.474.223H12.276V35.335a.617.617,0,0,0-.623-.607H7.725a.615.615,0,0,0-.622.607v3.227H3.437V11.982h12.5ZM12.5,38.338h3.207V12.205H3.666V38.338H6.875v-3a.84.84,0,0,1,.85-.83h3.927a.842.842,0,0,1,.852.83Zm-1.474.223H10.31V37.253a.622.622,0,0,0-1.243,0v1.308H8.348V35.943h2.683Zm-.492-.223H10.8V36.167H8.577v2.172h.261V37.253a.851.851,0,0,1,1.7,0ZM22.815,19.393h-5.63v-2.62h2.324a.608.608,0,1,0,0-1.215H17.185V12.94h2.324a.608.608,0,1,0,0-1.215H17.185v-.352a.615.615,0,0,0-.622-.607H10.31v-5.5h12.5Zm-5.4-.223h5.172V5.5H10.539v5.048h6.024a.842.842,0,0,1,.85.83V11.5h2.1a.831.831,0,1,1,0,1.662h-2.1v2.172h2.1a.831.831,0,1,1,0,1.662h-2.1ZM19.869,4.058H13.258V1.438h6.612Zm-6.383-.223h6.154V1.662H13.486Z" transform="translate(0 0)" fill="#fff"/>
    <path id="Path_54" data-name="Path 54" d="M12.3,28.151a.727.727,0,0,0,.736-.718V14.014a.736.736,0,0,0-1.472,0V27.432a.727.727,0,0,0,.736.718" transform="translate(8.186 8.863)" fill="#fff"/>
    <path id="Path_55" data-name="Path 55" d="M12.352,28.307a.842.842,0,0,1-.85-.83V14.057a.851.851,0,0,1,1.7,0v13.42a.843.843,0,0,1-.852.83m0-14.857a.615.615,0,0,0-.622.607v13.42a.623.623,0,0,0,1.245,0V14.057a.617.617,0,0,0-.623-.607" transform="translate(8.139 8.818)" fill="#fff"/>
    <path id="Path_56" data-name="Path 56" d="M14.03,28.151a.727.727,0,0,0,.736-.718V14.014a.736.736,0,0,0-1.472,0V27.432a.727.727,0,0,0,.736.718" transform="translate(9.407 8.863)" fill="#fff"/>
    <path id="Path_57" data-name="Path 57" d="M14.079,28.307a.843.843,0,0,1-.852-.83V14.057a.851.851,0,0,1,1.7,0v13.42a.842.842,0,0,1-.85.83m0-14.857a.617.617,0,0,0-.623.607v13.42a.623.623,0,0,0,1.245,0V14.057a.615.615,0,0,0-.622-.607" transform="translate(9.359 8.818)" fill="#fff"/>
    <path id="Path_58" data-name="Path 58" d="M15.756,28.151a.727.727,0,0,0,.736-.718V14.014a.736.736,0,0,0-1.472,0V27.432a.727.727,0,0,0,.736.718" transform="translate(10.628 8.863)" fill="#fff"/>
    <path id="Path_59" data-name="Path 59" d="M15.8,28.307a.843.843,0,0,1-.852-.83V14.057a.851.851,0,0,1,1.7,0v13.42a.842.842,0,0,1-.85.83m0-14.857a.617.617,0,0,0-.623.607v13.42a.623.623,0,0,0,1.245,0V14.057a.615.615,0,0,0-.622-.607" transform="translate(10.58 8.818)" fill="#fff"/>
    <path id="Path_60" data-name="Path 60" d="M16.331,4.764a.727.727,0,0,0,.736-.718V3.087a.736.736,0,0,0-1.472,0v.958a.727.727,0,0,0,.736.718" transform="translate(11.035 1.578)" fill="#fff"/>
    <path id="Path_61" data-name="Path 61" d="M16.378,4.919a.84.84,0,0,1-.85-.83V3.131a.851.851,0,0,1,1.7,0v.958a.84.84,0,0,1-.85.83m0-2.4a.615.615,0,0,0-.622.607v.958a.622.622,0,0,0,1.243,0V3.131a.615.615,0,0,0-.622-.607" transform="translate(10.987 1.534)" fill="#fff"/>
    <path id="Path_62" data-name="Path 62" d="M18.056,4.764a.727.727,0,0,0,.736-.718V3.087a.736.736,0,0,0-1.472,0v.958a.727.727,0,0,0,.736.718" transform="translate(12.255 1.578)" fill="#fff"/>
    <path id="Path_63" data-name="Path 63" d="M18.1,4.919a.84.84,0,0,1-.85-.83V3.131a.851.851,0,0,1,1.7,0v.958a.84.84,0,0,1-.85.83m0-2.4a.615.615,0,0,0-.622.607v.958a.622.622,0,0,0,1.243,0V3.131a.615.615,0,0,0-.622-.607" transform="translate(12.208 1.534)" fill="#fff"/>
    <path id="Path_64" data-name="Path 64" d="M19.781,4.764a.727.727,0,0,0,.736-.718V3.087a.736.736,0,0,0-1.472,0v.958a.727.727,0,0,0,.736.718" transform="translate(13.476 1.578)" fill="#fff"/>
    <path id="Path_65" data-name="Path 65" d="M19.828,4.919a.84.84,0,0,1-.85-.83V3.131a.851.851,0,0,1,1.7,0v.958a.842.842,0,0,1-.852.83m0-2.4a.615.615,0,0,0-.622.607v.958a.623.623,0,0,0,1.245,0V3.131a.617.617,0,0,0-.623-.607" transform="translate(13.428 1.534)" fill="#fff"/>
    <path id="Path_66" data-name="Path 66" d="M16.331,7.64a.728.728,0,0,0,.736-.718v-.96a.736.736,0,0,0-1.472,0v.96a.728.728,0,0,0,.736.718" transform="translate(11.035 3.495)" fill="#fff"/>
    <path id="Path_67" data-name="Path 67" d="M16.378,7.8a.84.84,0,0,1-.85-.828v-.96a.851.851,0,0,1,1.7,0v.96a.84.84,0,0,1-.85.828m0-2.4a.616.616,0,0,0-.622.608v.96a.622.622,0,0,0,1.243,0v-.96a.616.616,0,0,0-.622-.608" transform="translate(10.987 3.45)" fill="#fff"/>
    <path id="Path_68" data-name="Path 68" d="M18.056,7.64a.728.728,0,0,0,.736-.718v-.96a.736.736,0,0,0-1.472,0v.96a.728.728,0,0,0,.736.718" transform="translate(12.255 3.495)" fill="#fff"/>
    <path id="Path_69" data-name="Path 69" d="M18.1,7.8a.84.84,0,0,1-.85-.828v-.96a.851.851,0,0,1,1.7,0v.96a.84.84,0,0,1-.85.828m0-2.4a.616.616,0,0,0-.622.608v.96a.622.622,0,0,0,1.243,0v-.96A.616.616,0,0,0,18.1,5.4" transform="translate(12.208 3.45)" fill="#fff"/>
    <path id="Path_70" data-name="Path 70" d="M19.781,7.64a.728.728,0,0,0,.736-.718v-.96a.736.736,0,0,0-1.472,0v.96a.728.728,0,0,0,.736.718" transform="translate(13.476 3.495)" fill="#fff"/>
    <path id="Path_71" data-name="Path 71" d="M19.828,7.8a.84.84,0,0,1-.85-.828v-.96a.851.851,0,0,1,1.7,0v.96a.842.842,0,0,1-.852.828m0-2.4a.616.616,0,0,0-.622.608v.96a.623.623,0,0,0,1.245,0v-.96a.617.617,0,0,0-.623-.608" transform="translate(13.428 3.45)" fill="#fff"/>
    <path id="Path_72" data-name="Path 72" d="M16.331,10.515a.727.727,0,0,0,.736-.718V8.838a.736.736,0,0,0-1.472,0V9.8a.727.727,0,0,0,.736.718" transform="translate(11.035 5.412)" fill="#fff"/>
    <path id="Path_73" data-name="Path 73" d="M16.378,10.671a.842.842,0,0,1-.85-.83V8.883a.851.851,0,0,1,1.7,0v.958a.842.842,0,0,1-.85.83m0-2.4a.616.616,0,0,0-.622.608v.958a.622.622,0,0,0,1.243,0V8.883a.616.616,0,0,0-.622-.608" transform="translate(10.987 5.367)" fill="#fff"/>
    <path id="Path_74" data-name="Path 74" d="M18.056,10.515a.727.727,0,0,0,.736-.718V8.838a.736.736,0,0,0-1.472,0V9.8a.727.727,0,0,0,.736.718" transform="translate(12.255 5.412)" fill="#fff"/>
    <path id="Path_75" data-name="Path 75" d="M18.1,10.671a.842.842,0,0,1-.85-.83V8.883a.851.851,0,0,1,1.7,0v.958a.842.842,0,0,1-.85.83m0-2.4a.616.616,0,0,0-.622.608v.958a.622.622,0,0,0,1.243,0V8.883a.616.616,0,0,0-.622-.608" transform="translate(12.208 5.367)" fill="#fff"/>
    <path id="Path_76" data-name="Path 76" d="M19.781,10.515a.727.727,0,0,0,.736-.718V8.838a.736.736,0,0,0-1.472,0V9.8a.727.727,0,0,0,.736.718" transform="translate(13.476 5.412)" fill="#fff"/>
    <path id="Path_77" data-name="Path 77" d="M19.828,10.671a.842.842,0,0,1-.85-.83V8.883a.851.851,0,0,1,1.7,0v.958a.843.843,0,0,1-.852.83m0-2.4a.616.616,0,0,0-.622.608v.958a.623.623,0,0,0,1.245,0V8.883a.617.617,0,0,0-.623-.608" transform="translate(13.428 5.367)" fill="#fff"/>
    <path id="Path_78" data-name="Path 78" d="M4.254,11.665a.727.727,0,0,0,.736-.718V9.988a.736.736,0,0,0-1.472,0v.958a.727.727,0,0,0,.736.718" transform="translate(2.489 6.179)" fill="#fff"/>
    <path id="Path_79" data-name="Path 79" d="M4.3,11.821a.842.842,0,0,1-.85-.83v-.96a.851.851,0,0,1,1.7,0v.96a.842.842,0,0,1-.85.83m0-2.4a.615.615,0,0,0-.622.607v.96a.622.622,0,0,0,1.243,0v-.96A.615.615,0,0,0,4.3,9.424" transform="translate(2.442 6.134)" fill="#fff"/>
    <path id="Path_80" data-name="Path 80" d="M5.979,11.665a.727.727,0,0,0,.736-.718V9.988a.736.736,0,0,0-1.472,0v.958a.727.727,0,0,0,.736.718" transform="translate(3.71 6.179)" fill="#fff"/>
    <path id="Path_81" data-name="Path 81" d="M6.026,11.821a.842.842,0,0,1-.85-.83v-.96a.851.851,0,0,1,1.7,0v.96a.842.842,0,0,1-.85.83m0-2.4a.615.615,0,0,0-.622.607v.96a.622.622,0,0,0,1.243,0v-.96a.615.615,0,0,0-.622-.607" transform="translate(3.662 6.134)" fill="#fff"/>
    <path id="Path_82" data-name="Path 82" d="M7.7,11.665a.727.727,0,0,0,.736-.718V9.988a.735.735,0,0,0-1.47,0v.958a.726.726,0,0,0,.734.718" transform="translate(4.931 6.179)" fill="#fff"/>
    <path id="Path_83" data-name="Path 83" d="M7.751,11.821a.842.842,0,0,1-.85-.83v-.96a.851.851,0,0,1,1.7,0v.96a.843.843,0,0,1-.852.83m0-2.4a.615.615,0,0,0-.622.607v.96a.623.623,0,0,0,1.245,0v-.96a.617.617,0,0,0-.623-.607" transform="translate(4.883 6.134)" fill="#fff"/>
    <path id="Path_84" data-name="Path 84" d="M4.254,14.541a.727.727,0,0,0,.736-.718v-.958a.736.736,0,0,0-1.472,0v.958a.727.727,0,0,0,.736.718" transform="translate(2.489 8.096)" fill="#fff"/>
    <path id="Path_85" data-name="Path 85" d="M4.3,14.7a.842.842,0,0,1-.85-.83v-.96a.851.851,0,0,1,1.7,0v.96a.842.842,0,0,1-.85.83m0-2.4a.615.615,0,0,0-.622.607v.96a.622.622,0,0,0,1.243,0v-.96A.615.615,0,0,0,4.3,12.3" transform="translate(2.442 8.051)" fill="#fff"/>
    <path id="Path_86" data-name="Path 86" d="M5.979,14.541a.727.727,0,0,0,.736-.718v-.958a.736.736,0,0,0-1.472,0v.958a.727.727,0,0,0,.736.718" transform="translate(3.71 8.096)" fill="#fff"/>
    <path id="Path_87" data-name="Path 87" d="M6.026,14.7a.842.842,0,0,1-.85-.83v-.96a.851.851,0,0,1,1.7,0v.96a.842.842,0,0,1-.85.83m0-2.4a.615.615,0,0,0-.622.607v.96a.622.622,0,0,0,1.243,0v-.96a.615.615,0,0,0-.622-.607" transform="translate(3.662 8.051)" fill="#fff"/>
    <path id="Path_88" data-name="Path 88" d="M7.7,14.541a.727.727,0,0,0,.736-.718v-.958a.735.735,0,0,0-1.47,0v.958a.726.726,0,0,0,.734.718" transform="translate(4.931 8.096)" fill="#fff"/>
    <path id="Path_89" data-name="Path 89" d="M7.751,14.7a.842.842,0,0,1-.85-.83v-.96a.851.851,0,0,1,1.7,0v.96a.843.843,0,0,1-.852.83m0-2.4a.615.615,0,0,0-.622.607v.96a.623.623,0,0,0,1.245,0v-.96a.617.617,0,0,0-.623-.607" transform="translate(4.883 8.051)" fill="#fff"/>
    <path id="Path_90" data-name="Path 90" d="M4.254,17.416A.727.727,0,0,0,4.99,16.7v-.958a.736.736,0,0,0-1.472,0V16.7a.727.727,0,0,0,.736.718" transform="translate(2.489 10.013)" fill="#fff"/>
    <path id="Path_91" data-name="Path 91" d="M4.3,17.572a.842.842,0,0,1-.85-.83v-.96a.851.851,0,0,1,1.7,0v.96a.842.842,0,0,1-.85.83m0-2.4a.615.615,0,0,0-.622.607v.96a.622.622,0,0,0,1.243,0v-.96a.615.615,0,0,0-.622-.607" transform="translate(2.442 9.968)" fill="#fff"/>
    <path id="Path_92" data-name="Path 92" d="M5.979,17.416a.727.727,0,0,0,.736-.718v-.958a.736.736,0,0,0-1.472,0V16.7a.727.727,0,0,0,.736.718" transform="translate(3.71 10.013)" fill="#fff"/>
    <path id="Path_93" data-name="Path 93" d="M6.026,17.572a.842.842,0,0,1-.85-.83v-.96a.851.851,0,0,1,1.7,0v.96a.842.842,0,0,1-.85.83m0-2.4a.615.615,0,0,0-.622.607v.96a.622.622,0,0,0,1.243,0v-.96a.615.615,0,0,0-.622-.607" transform="translate(3.662 9.968)" fill="#fff"/>
    <path id="Path_94" data-name="Path 94" d="M7.7,17.416a.727.727,0,0,0,.736-.718v-.958a.735.735,0,0,0-1.47,0V16.7a.726.726,0,0,0,.734.718" transform="translate(4.931 10.013)" fill="#fff"/>
    <path id="Path_95" data-name="Path 95" d="M7.751,17.572a.842.842,0,0,1-.85-.83v-.96a.851.851,0,0,1,1.7,0v.96a.843.843,0,0,1-.852.83m0-2.4a.615.615,0,0,0-.622.607v.96a.623.623,0,0,0,1.245,0v-.96a.617.617,0,0,0-.623-.607" transform="translate(4.883 9.968)" fill="#fff"/>
    <path id="Path_96" data-name="Path 96" d="M4.254,20.291a.727.727,0,0,0,.736-.718v-.958a.736.736,0,0,0-1.472,0v.958a.727.727,0,0,0,.736.718" transform="translate(2.489 11.929)" fill="#fff"/>
    <path id="Path_97" data-name="Path 97" d="M4.3,20.448a.842.842,0,0,1-.85-.83v-.96a.851.851,0,0,1,1.7,0v.96a.842.842,0,0,1-.85.83m0-2.4a.615.615,0,0,0-.622.607v.96a.622.622,0,0,0,1.243,0v-.96a.615.615,0,0,0-.622-.607" transform="translate(2.442 11.885)" fill="#fff"/>
    <path id="Path_98" data-name="Path 98" d="M5.979,20.291a.727.727,0,0,0,.736-.718v-.958a.736.736,0,0,0-1.472,0v.958a.727.727,0,0,0,.736.718" transform="translate(3.71 11.929)" fill="#fff"/>
    <path id="Path_99" data-name="Path 99" d="M6.026,20.448a.842.842,0,0,1-.85-.83v-.96a.851.851,0,0,1,1.7,0v.96a.842.842,0,0,1-.85.83m0-2.4a.615.615,0,0,0-.622.607v.96a.622.622,0,0,0,1.243,0v-.96a.615.615,0,0,0-.622-.607" transform="translate(3.662 11.885)" fill="#fff"/>
    <path id="Path_100" data-name="Path 100" d="M7.7,20.291a.727.727,0,0,0,.736-.718v-.958a.735.735,0,0,0-1.47,0v.958a.726.726,0,0,0,.734.718" transform="translate(4.931 11.929)" fill="#fff"/>
    <path id="Path_101" data-name="Path 101" d="M7.751,20.448a.842.842,0,0,1-.85-.83v-.96a.851.851,0,0,1,1.7,0v.96a.843.843,0,0,1-.852.83m0-2.4a.615.615,0,0,0-.622.607v.96a.623.623,0,0,0,1.245,0v-.96a.617.617,0,0,0-.623-.607" transform="translate(4.883 11.885)" fill="#fff"/>
    <path id="Path_102" data-name="Path 102" d="M19.781,13.39a.727.727,0,0,0,.736-.718v-.958a.736.736,0,0,0-1.472,0v.958a.727.727,0,0,0,.736.718" transform="translate(13.476 7.329)" fill="#fff"/>
    <path id="Path_103" data-name="Path 103" d="M19.828,13.545a.842.842,0,0,1-.85-.83v-.958a.851.851,0,0,1,1.7,0v.958a.843.843,0,0,1-.852.83m0-2.4a.614.614,0,0,0-.622.607v.958a.623.623,0,0,0,1.245,0v-.958a.616.616,0,0,0-.623-.607" transform="translate(13.428 7.285)" fill="#fff"/>
    <path id="Path_104" data-name="Path 104" d="M19.781,16.266a.727.727,0,0,0,.736-.718v-.958a.736.736,0,0,0-1.472,0v.958a.727.727,0,0,0,.736.718" transform="translate(13.476 9.246)" fill="#fff"/>
    <path id="Path_105" data-name="Path 105" d="M19.828,16.422a.842.842,0,0,1-.85-.83v-.958a.851.851,0,0,1,1.7,0v.958a.843.843,0,0,1-.852.83m0-2.4a.616.616,0,0,0-.622.608v.958a.623.623,0,0,0,1.245,0v-.958a.617.617,0,0,0-.623-.608" transform="translate(13.428 9.201)" fill="#fff"/>
    <path id="Path_106" data-name="Path 106" d="M19.781,19.141a.727.727,0,0,0,.736-.718v-.958a.736.736,0,0,0-1.472,0v.958a.727.727,0,0,0,.736.718" transform="translate(13.476 11.163)" fill="#fff"/>
    <path id="Path_107" data-name="Path 107" d="M19.828,19.3a.842.842,0,0,1-.85-.83v-.96a.851.851,0,0,1,1.7,0v.96a.843.843,0,0,1-.852.83m0-2.4a.615.615,0,0,0-.622.607v.96a.623.623,0,0,0,1.245,0v-.96a.617.617,0,0,0-.623-.607" transform="translate(13.428 11.118)" fill="#fff"/>
    <path id="Path_108" data-name="Path 108" d="M19.781,22.017a.727.727,0,0,0,.736-.718V20.34a.736.736,0,0,0-1.472,0V21.3a.727.727,0,0,0,.736.718" transform="translate(13.476 13.08)" fill="#fff"/>
    <path id="Path_109" data-name="Path 109" d="M19.828,22.173a.842.842,0,0,1-.85-.83v-.96a.851.851,0,0,1,1.7,0v.96a.843.843,0,0,1-.852.83m0-2.4a.615.615,0,0,0-.622.607v.96a.623.623,0,0,0,1.245,0v-.96a.617.617,0,0,0-.623-.607" transform="translate(13.428 13.035)" fill="#fff"/>
    <path id="Path_110" data-name="Path 110" d="M14.908,5.386a.727.727,0,0,0-.736-.718H8.279a.719.719,0,1,0,0,1.437h5.893a.727.727,0,0,0,.736-.718" transform="translate(5.337 3.112)" fill="#fff"/>
    <path id="Path_111" data-name="Path 111" d="M14.219,6.263H8.328a.831.831,0,1,1,0-1.662h5.891a.831.831,0,1,1,0,1.662M8.328,4.824a.608.608,0,1,0,0,1.215h5.891a.608.608,0,1,0,0-1.215Z" transform="translate(5.29 3.067)" fill="#fff"/>
  </g>
</svg>
