<svg id="Group_28" data-name="Group 28" xmlns="http://www.w3.org/2000/svg" xmlns:xlink="http://www.w3.org/1999/xlink" width="40" height="40" viewBox="0 0 40 40">
  <defs>
    <clipPath id="clip-path">
      <rect id="Rectangle_29" data-name="Rectangle 29" width="40" height="40" fill="#fff"/>
    </clipPath>
  </defs>
  <g id="Group_27" data-name="Group 27" clip-path="url(#clip-path)">
    <path id="Path_11" data-name="Path 11" d="M9.829,6.41A4.227,4.227,0,0,0,5.89,1.952,4.227,4.227,0,0,0,1.952,6.41,4.227,4.227,0,0,0,5.89,10.869,4.227,4.227,0,0,0,9.829,6.41m-1.53,0A2.586,2.586,0,0,1,5.89,9.137,2.586,2.586,0,0,1,3.48,6.41,2.586,2.586,0,0,1,5.89,3.684,2.586,2.586,0,0,1,8.3,6.41" transform="translate(0.922 1.301)" fill="#fff"/>
    <path id="Path_12" data-name="Path 12" d="M4.873,3.058a.82.82,0,0,0,.764-.865V.867A.82.82,0,0,0,4.873,0a.821.821,0,0,0-.766.867V2.193a.821.821,0,0,0,.766.865" transform="translate(1.94)" fill="#fff"/>
    <path id="Path_13" data-name="Path 13" d="M7.213,3.873a.719.719,0,0,0,.542-.253l.827-.938a.949.949,0,0,0,0-1.225.7.7,0,0,0-1.081,0l-.829.938a.953.953,0,0,0,0,1.225.716.716,0,0,0,.54.253" transform="translate(3.046 0.802)" fill="#fff"/>
    <path id="Path_14" data-name="Path 14" d="M7.419,4.974a.82.82,0,0,0,.764.865H9.355a.82.82,0,0,0,.764-.865.821.821,0,0,0-.764-.867H8.183a.821.821,0,0,0-.764.867" transform="translate(3.504 2.738)" fill="#fff"/>
    <path id="Path_15" data-name="Path 15" d="M7.5,8.861a.7.7,0,0,0,1.082,0,.952.952,0,0,0,0-1.225L7.755,6.7a.721.721,0,0,0-1.082,0,.953.953,0,0,0,0,1.225Z" transform="translate(3.046 4.302)" fill="#fff"/>
    <path id="Path_16" data-name="Path 16" d="M4.107,8.284V9.611a.821.821,0,0,0,.766.865.821.821,0,0,0,.764-.865V8.284a.82.82,0,0,0-.764-.865.82.82,0,0,0-.766.865" transform="translate(1.94 4.946)" fill="#fff"/>
    <path id="Path_17" data-name="Path 17" d="M2.255,6.7l-.829.938a.953.953,0,0,0,0,1.225.7.7,0,0,0,1.082,0l.829-.938a.95.95,0,0,0,0-1.225.72.72,0,0,0-1.082,0" transform="translate(0.568 4.303)" fill="#fff"/>
    <path id="Path_18" data-name="Path 18" d="M.765,5.839H1.937A.821.821,0,0,0,2.7,4.974a.821.821,0,0,0-.764-.867H.765A.82.82,0,0,0,0,4.974a.82.82,0,0,0,.764.865" transform="translate(0 2.738)" fill="#fff"/>
    <path id="Path_19" data-name="Path 19" d="M2.255,3.617a.7.7,0,0,0,1.082,0,.952.952,0,0,0,0-1.227l-.829-.938a.722.722,0,0,0-1.082,0,.955.955,0,0,0,0,1.227Z" transform="translate(0.568 0.805)" fill="#fff"/>
    <path id="Path_20" data-name="Path 20" d="M36.225,34.543A12.089,12.089,0,0,0,30.308,30.4a26.11,26.11,0,0,0-5.517-1.388l4-11.357a7.662,7.662,0,0,1,1.4,1.615.73.73,0,0,0,.81.368,6.722,6.722,0,0,1,4.13.515,7.689,7.689,0,0,1,3.326,2.87.758.758,0,0,0,.8.332.833.833,0,0,0,.573-.72,25.8,25.8,0,0,0-.685-8.952l-.97-2.78-.006-.017A13.427,13.427,0,0,0,31.33,3.8C27.1,1.9,22.708,2.52,18.618,5.612a21.705,21.705,0,0,0-4.9,5.238.958.958,0,0,0-.021.967.729.729,0,0,0,.785.385,6.7,6.7,0,0,1,4.159.507,7.73,7.73,0,0,1,3.292,2.815.732.732,0,0,0,.849.387,6.387,6.387,0,0,1,1.977-.078l-4.52,12.84-.23,0a31.576,31.576,0,0,0-7.675.907l-2.631.82A12.079,12.079,0,0,0,3.8,34.543a5.14,5.14,0,0,0-3.369,1.1.943.943,0,0,0-.2,1.2.764.764,0,0,0,.49.363.688.688,0,0,0,.573-.133A3.74,3.74,0,0,1,4.011,36.3c.049.012.116.013.122.018a3.841,3.841,0,0,1,1.768.765,5.082,5.082,0,0,0,6.331,0,3.7,3.7,0,0,1,4.614,0,5.082,5.082,0,0,0,6.332,0,3.7,3.7,0,0,1,4.613,0,5.08,5.08,0,0,0,6.331,0,3.815,3.815,0,0,1,1.743-.763.549.549,0,0,0,.13-.017,3.732,3.732,0,0,1,2.741.78.7.7,0,0,0,.574.133.77.77,0,0,0,.489-.363.965.965,0,0,0,.118-.65.875.875,0,0,0-.322-.553,5.147,5.147,0,0,0-3.369-1.1M21.869,28.72l4.412-12.532c.212.073.425.16.639.257.031.015.352.18.546.283L23.21,28.818c-.227-.02-.455-.038-.685-.057s-.437-.03-.657-.042m7.955,3.317a12.027,12.027,0,0,1,4.667,2.9,5.514,5.514,0,0,0-1.228.713,3.7,3.7,0,0,1-4.614,0,5.08,5.08,0,0,0-6.331,0,3.7,3.7,0,0,1-4.614,0,5.082,5.082,0,0,0-6.331,0,3.7,3.7,0,0,1-4.614,0,5.5,5.5,0,0,0-1.226-.713,11.988,11.988,0,0,1,4.649-2.888l2.5-.78A31.985,31.985,0,0,1,23.646,30.6a25.472,25.472,0,0,1,6.178,1.435M25.616,10.68l1.438-1.965A13.471,13.471,0,0,1,29.526,6.4a8.828,8.828,0,0,1,1.137-.7,11.444,11.444,0,0,1,.347,1.158,19.473,19.473,0,0,1-.1,8.715c-.107.505-.231,1.008-.368,1.507A9.205,9.205,0,0,0,27.825,15l-.046-.022A8.484,8.484,0,0,0,24,14.057c-.054,0-.109,0-.165,0a24.2,24.2,0,0,1,1.778-3.378m1.191-4.107c-.321.333-.6.643-.872.962L24.391,9.643l-.007.012a25.422,25.422,0,0,0-1.615,2.965c-.13.275-.262.56-.381.848A9.333,9.333,0,0,0,19.209,11.1a8.4,8.4,0,0,0-3.124-.757A20.234,20.234,0,0,1,19.5,7.03a12.66,12.66,0,0,1,4.991-2.375,9.691,9.691,0,0,1,4.457.113,13.509,13.509,0,0,0-2.138,1.8M32.861,8.5a16.243,16.243,0,0,0-.38-2.132,12.094,12.094,0,0,1,4.312,5.277l.894,2.56a23.8,23.8,0,0,1,.733,6.22,9.173,9.173,0,0,0-2.727-1.883,8.442,8.442,0,0,0-3.45-.765c-.1,0-.2,0-.3.008a27.473,27.473,0,0,0,.916-4.7,21.685,21.685,0,0,0,0-4.585" transform="translate(0.044 1.815)" fill="#fff"/>
  </g>
</svg>
