<svg id="Group_52" data-name="Group 52" xmlns="http://www.w3.org/2000/svg" xmlns:xlink="http://www.w3.org/1999/xlink" width="40" height="40" viewBox="0 0 40 40">
  <defs>
    <clipPath id="clip-path">
      <rect id="Rectangle_41" data-name="Rectangle 41" width="40" height="40" fill="#fff"/>
    </clipPath>
  </defs>
  <g id="Group_51" data-name="Group 51" clip-path="url(#clip-path)">
    <path id="Path_51" data-name="Path 51" d="M33.4,24.482c0,2.407-1.441,4.36-3.212,4.36a.354.354,0,0,0-.043,0l-.077.01-.016-.1c-.278-1.848-1.483-3.192-2.865-3.192a2.741,2.741,0,0,0-2.326,1.565l-.069.122-.069-.122a2.737,2.737,0,0,0-2.325-1.565,2.375,2.375,0,0,0-1.585.65l-.134.118V23.8H28.56a.088.088,0,0,0,.031,0l.016,0,.066.01c1.451,0,2.924-3.682,2.924-11.9S30.124,0,28.663,0H10.226C9.854,0,9.55.412,9.55.918s.3.917.674.917c.484.1,1.586,3.65,1.586,10.068s-1.1,9.963-1.57,10.065c-.386,0-.69.413-.69.918a.84.84,0,0,0,.648.91l9.125.008V26.33l-.134-.12a2.379,2.379,0,0,0-1.583-.648,2.74,2.74,0,0,0-2.326,1.565l-.069.122-.069-.122a2.734,2.734,0,0,0-2.325-1.565c-1.382,0-2.586,1.342-2.865,3.19l-.015.1-.106-.007c-1.771,0-3.212-1.953-3.212-4.353l-.01-.39V21.267H0v4.1H2.739v3.165c0,6.262,3.757,11.4,8.375,11.46L28.844,40l.039-.005c4.622-.06,8.378-5.2,8.378-11.46V25.37H40V21.6l-6.612-4.187v3.852h-.327V19.822c0-.5-.3-.917-.677-.917s-.677.412-.677.917v2.36c0,.507.3.918.677.918h1M5.266,24.487c0,3.412,2.048,6.188,4.566,6.188a.426.426,0,0,0,.1-.012l.074-.015.023.1c.39,1.66,1.51,2.775,2.787,2.775a2.736,2.736,0,0,0,2.325-1.563l.069-.122.069.122a2.741,2.741,0,0,0,2.326,1.563,2.738,2.738,0,0,0,2.325-1.563L20,31.835l.069.122a2.74,2.74,0,0,0,2.326,1.563,2.738,2.738,0,0,0,2.325-1.563l.069-.122.069.122a2.741,2.741,0,0,0,2.326,1.563c1.282,0,2.4-1.117,2.788-2.78l.023-.1.075.02a.466.466,0,0,0,.116.015c2.518,0,4.566-2.777,4.566-6.188,0-.018,0-.032,0-.035l-.009-.025,0-.017V23.1h.343c.372,0,.676-.412.676-.917s-.3-.918-.676-.918h-.343v-.972l3.907,2.472v.77h-2.74v5a12.959,12.959,0,0,1-.145,1.935l-.359,1.6c-1.087,3.7-3.676,6.092-6.6,6.092H11.194a6.472,6.472,0,0,1-5.285-3.215l-.852-1.592a12.317,12.317,0,0,1-.966-4.825v-5H1.352V23.1H5.258v1Zm21.915,7.2c-.873,0-1.582-.962-1.582-2.147s.709-2.147,1.582-2.147,1.583.962,1.583,2.147-.709,2.147-1.583,2.147m-4.787,0c-.873,0-1.583-.962-1.583-2.147s.711-2.147,1.583-2.147,1.582.962,1.582,2.147-.709,2.147-1.582,2.147m-4.787,0c-.874,0-1.583-.962-1.583-2.147s.709-2.147,1.583-2.147,1.582.962,1.582,2.147-.709,2.147-1.582,2.147m-4.788,0c-.874,0-1.583-.962-1.583-2.147s.709-2.147,1.583-2.147,1.582.962,1.582,2.147-.709,2.147-1.582,2.147M28.652,1.835l.011,0,.011,0c.471.1,1.571,3.65,1.571,10.068s-1.1,9.965-1.57,10.065a.333.333,0,0,0-.048.007l-2.9-.005.06-.168a33.108,33.108,0,0,0,1.2-9.9,33.128,33.128,0,0,0-1.2-9.9l-.06-.168h2.921Zm-7.4,20.135h-.138l.06-.168a33,33,0,0,0,1.2-9.9,33.167,33.167,0,0,0-1.2-9.9l-.06-.168h2.929c.484.11,1.583,3.667,1.583,10.068s-1.1,9.963-1.569,10.065Zm-4.6,0h-.139l.06-.168a33.093,33.093,0,0,0,1.2-9.9,33.1,33.1,0,0,0-1.2-9.9l-.06-.168h2.929c.484.11,1.583,3.667,1.583,10.068,0,6.418-1.1,9.965-1.569,10.065Zm-4.61,0H11.9l.06-.168a33.085,33.085,0,0,0,1.2-9.9,33.09,33.09,0,0,0-1.2-9.9l-.06-.168h2.929c.483.1,1.585,3.65,1.585,10.068s-1.1,9.963-1.57,10.065Z" fill="#fff"/>
  </g>
</svg>
