<svg id="Group_56" data-name="Group 56" xmlns="http://www.w3.org/2000/svg" xmlns:xlink="http://www.w3.org/1999/xlink" width="40" height="40" viewBox="0 0 40 40">
  <defs>
    <clipPath id="clip-path">
      <rect id="Rectangle_43" data-name="Rectangle 43" width="40" height="40" fill="#fff"/>
    </clipPath>
  </defs>
  <g id="Group_55" data-name="Group 55" clip-path="url(#clip-path)">
    <path id="Path_112" data-name="Path 112" d="M16.408,25.665A10.067,10.067,0,0,0,26.672,15.83,10.067,10.067,0,0,0,16.408,6,10.069,10.069,0,0,0,6.141,15.83a10.069,10.069,0,0,0,10.267,9.835M8.043,15.83a8.2,8.2,0,0,1,8.365-8.013,8.205,8.205,0,0,1,8.367,8.013,8.205,8.205,0,0,1-8.367,8.015A8.2,8.2,0,0,1,8.043,15.83" transform="translate(4.544 3.998)" fill="#fff"/>
    <path id="Path_113" data-name="Path 113" d="M14.128,18.006a.929.929,0,0,0,.466-.127,6.483,6.483,0,0,0,3.395-5.637.953.953,0,0,0-1.9,0,4.675,4.675,0,0,1-2.448,4.063.844.844,0,0,0-.32,1.225.956.956,0,0,0,.806.475" transform="translate(9.753 7.584)" fill="#fff"/>
    <path id="Path_114" data-name="Path 114" d="M39.05,0c-1.924,0-3.8,1.268-5.282,3.57a13.126,13.126,0,0,0-1.855,4.653,16.89,16.89,0,0,0-21.279-.535V1.982a.954.954,0,0,0-1.9,0V8.76H6.267V1.982a.954.954,0,0,0-1.9,0V8.76H1.9V1.982a.954.954,0,0,0-1.9,0V9.707A5.582,5.582,0,0,0,2.786,14.69V37.608h0a2.5,2.5,0,0,0,2.528,2.32,2.492,2.492,0,0,0,2.532-2.443v-8.3A16.005,16.005,0,0,0,12.124,33a17.183,17.183,0,0,0,17.688-.02,16.108,16.108,0,0,0,5.126-5.057v9.652a2.534,2.534,0,0,0,5.063,0V.91A.932.932,0,0,0,39.05,0m-18.1,6a14.734,14.734,0,0,1,10.822,4.677v15.3a.932.932,0,0,0,.95.91h.649a14.271,14.271,0,0,1-4.592,4.568,15.183,15.183,0,0,1-15.629.017,14.064,14.064,0,0,1-5.235-5.683,1.048,1.048,0,0,0-.068-.113V14.69a5.479,5.479,0,0,0,2.765-4.518A14.637,14.637,0,0,1,20.952,6M8.649,10.58a3.043,3.043,0,0,1-2.662,2.748H4.647A3.043,3.043,0,0,1,1.985,10.58Zm-2.7,26.9a.59.59,0,0,1-.632.6.59.59,0,0,1-.632-.6V15.148H5.949ZM38.1,2.008V25.065H33.674V9.693c0-3.917,2.558-6.957,4.426-7.685M36.837,26.885H38.1v10.69a.634.634,0,0,1-1.263,0Z" fill="#fff"/>
  </g>
</svg>
