<svg id="Group_71" data-name="Group 71" xmlns="http://www.w3.org/2000/svg" xmlns:xlink="http://www.w3.org/1999/xlink" width="40" height="40" viewBox="0 0 40 40">
  <defs>
    <clipPath id="clip-path">
      <rect id="Rectangle_47" data-name="Rectangle 47" width="40" height="40" fill="#fff"/>
    </clipPath>
  </defs>
  <g id="Group_70" data-name="Group 70" clip-path="url(#clip-path)">
    <path id="Path_119" data-name="Path 119" d="M25.582,10.119c.3,0,.55.382.55.852V32.4c0,.47-.246.853-.55.853H.551c-.3,0-.551-.383-.551-.853V10.971c0-.47.247-.852.551-.852ZM1.1,31.549H25.031V11.824H1.1V31.549" transform="translate(0 6.746)" fill="#fff"/>
    <path id="Path_120" data-name="Path 120" d="M5,11.956c1.393,0,2.526,1.757,2.526,3.915S6.392,19.784,5,19.784s-2.526-1.757-2.526-3.913S3.606,11.956,5,11.956m0,6.123c.786,0,1.425-.992,1.425-2.208S5.785,13.661,5,13.661s-1.425.992-1.425,2.21S4.213,18.079,5,18.079" transform="translate(0.187 7.971)" fill="#fff"/>
    <path id="Path_121" data-name="Path 121" d="M5,17.466c1.393,0,2.526,1.757,2.526,3.915S6.392,25.294,5,25.294s-2.526-1.757-2.526-3.913S3.606,17.466,5,17.466m0,6.123c.786,0,1.425-.992,1.425-2.208S5.785,19.171,5,19.171s-1.425.992-1.425,2.21S4.213,23.589,5,23.589" transform="translate(0.187 11.644)" fill="#fff"/>
    <path id="Path_122" data-name="Path 122" d="M12.347,11.956c1.393,0,2.526,1.757,2.526,3.915s-1.133,3.913-2.526,3.913-2.526-1.757-2.526-3.913,1.133-3.915,2.526-3.915m0,6.123c.786,0,1.425-.992,1.425-2.208s-.639-2.21-1.425-2.21-1.425.992-1.425,2.21.639,2.208,1.425,2.208" transform="translate(0.745 7.971)" fill="#fff"/>
    <path id="Path_123" data-name="Path 123" d="M12.347,17.466c1.393,0,2.526,1.757,2.526,3.915s-1.133,3.913-2.526,3.913-2.526-1.757-2.526-3.913,1.133-3.915,2.526-3.915m0,6.123c.786,0,1.425-.992,1.425-2.208s-.639-2.21-1.425-2.21-1.425.992-1.425,2.21.639,2.208,1.425,2.208" transform="translate(0.745 11.644)" fill="#fff"/>
    <path id="Path_124" data-name="Path 124" d="M19.694,11.956c1.393,0,2.526,1.757,2.526,3.915s-1.133,3.913-2.526,3.913-2.526-1.757-2.526-3.913,1.133-3.915,2.526-3.915m0,6.123c.786,0,1.425-.992,1.425-2.208s-.639-2.21-1.425-2.21-1.425.992-1.425,2.21.639,2.208,1.425,2.208" transform="translate(1.302 7.971)" fill="#fff"/>
    <path id="Path_125" data-name="Path 125" d="M19.694,17.466c1.393,0,2.526,1.757,2.526,3.915s-1.133,3.913-2.526,3.913-2.526-1.757-2.526-3.913,1.133-3.915,2.526-3.915m0,6.123c.786,0,1.425-.992,1.425-2.208s-.639-2.21-1.425-2.21-1.425.992-1.425,2.21.639,2.208,1.425,2.208" transform="translate(1.302 11.644)" fill="#fff"/>
    <path id="Path_126" data-name="Path 126" d="M26.014,0c.209,0,.4.18.492.468L27.4,3.2l.048.15.1-.077,1.177-.918a.393.393,0,0,1,.247-.092c.209,0,.4.178.492.468L31.241,8.2a1.284,1.284,0,0,1,.031.652.84.84,0,0,1-.274.5l-1.176.918-.1.075.048.15,1.186,3.643.049.15.1-.075,1.176-.918a.393.393,0,0,1,.247-.092c.209,0,.4.178.492.467L34.8,19.127a1.117,1.117,0,0,1-.242,1.147l-1.176.918-.1.075.048.15,1.186,3.643.048.15.1-.075,1.176-.92a.4.4,0,0,1,.247-.092c.209,0,.4.18.492.468l1.783,5.465a1.272,1.272,0,0,1,.032.652.851.851,0,0,1-.275.5l-1.175.918-.1.075.049.15.9,2.73a1.272,1.272,0,0,1,.032.652.842.842,0,0,1-.275.493l-4.7,3.683A.393.393,0,0,1,32.6,40c-.209,0-.4-.178-.492-.468L20.819,4.92a1.278,1.278,0,0,1-.031-.65.84.84,0,0,1,.274-.495l4.7-3.683A.405.405,0,0,1,26.014,0m6.824,38,.1-.075,3.531-2.762.1-.077-.049-.15L25.813,2.15,25.764,2l-.1.077L22.139,4.838l-.1.075.049.15,10.7,32.788.048.15M29.22,8.818l.1-.077.588-.46.1-.075-.049-.15L28.767,4.413l-.048-.15-.1.075-.588.46-.1.077.048.15,1.187,3.643.048.15m3.565,10.928.1-.075.588-.46.1-.075-.048-.15-1.186-3.645-.048-.15-.1.077-.588.46-.1.077.049.148L32.737,19.6l.048.15m3.565,10.93.1-.075.588-.46.1-.077-.048-.15L35.9,26.272l-.048-.15-.1.075-.588.462-.1.075.049.15L36.3,30.527l.048.15" transform="translate(1.574)" fill="#fff"/>
  </g>
</svg>
