<svg data-name="Group 36" xmlns="http://www.w3.org/2000/svg" xmlns:xlink="http://www.w3.org/1999/xlink" width="40" height="40" viewBox="0 0 40 40">
  <defs>
    <clipPath id="clip-path">
      <rect id="Rectangle_35" data-name="Rectangle 35" width="40" height="40" fill="#fff"/>
    </clipPath>
  </defs>
  <g data-name="Group 35" clip-path="url(#clip-path)">
    <path id="Path_26" data-name="Path 26" d="M38.753,15.747A13.732,13.732,0,0,0,40,10.014,12.81,12.81,0,0,0,35.61.154.633.633,0,0,0,34.8.14a.9.9,0,0,0-.3.873,12.038,12.038,0,0,1,.221,2.25,10.958,10.958,0,0,1-3.978,8.668,14.573,14.573,0,0,0-10.4-4.553A13.744,13.744,0,0,0,16.26,8l-.021,0a.619.619,0,0,0-.361.132,15.455,15.455,0,0,0-6.223,4.1A10.917,10.917,0,0,1,5.276,3.264,12.038,12.038,0,0,1,5.5,1.014.907.907,0,0,0,5.2.14.626.626,0,0,0,4.39.154,12.817,12.817,0,0,0,0,10.014,12.59,12.59,0,0,0,5.218,20.5,20.78,20.78,0,0,0,4.6,24.765H4.386a2.272,2.272,0,0,0-2.074,2.423A2.272,2.272,0,0,0,4.386,29.61h.2v5.578H4.372a2.435,2.435,0,0,0,0,4.812H36.313a2.435,2.435,0,0,0,0-4.812H36.1V29.61h.2a2.271,2.271,0,0,0,2.072-2.422A2.271,2.271,0,0,0,36.3,24.765H36.08a20.69,20.69,0,0,0-.72-4.675,11.672,11.672,0,0,0,3.393-4.343M6.009,29.61H34.676v5.578H6.009Zm30.3,8.725H4.372a.75.75,0,0,1,0-1.482H36.313a.75.75,0,0,1,0,1.482m-1.656-13.57H25.233V10.057A14.742,14.742,0,0,1,31.811,15.7a18.048,18.048,0,0,1,2.846,9.067m-2.395-8.378c.114.2.224.4.331.6-.107-.2-.217-.4-.331-.6m1.06,2.148c.08.193.155.39.228.587-.073-.2-.148-.393-.228-.587m.765,2.285c.053.2.1.41.148.618-.046-.208-.1-.415-.148-.618m.461,2.4c.027.222.051.445.071.668-.02-.223-.044-.445-.071-.668M25.956,10.36c.147.072.292.147.438.225-.145-.077-.291-.153-.438-.225m1.9,1.133c.111.08.223.16.331.243-.108-.083-.22-.163-.331-.243M29.545,12.9c.1.1.2.2.3.3-.1-.1-.2-.2-.3-.3m2.251.207a12.822,12.822,0,0,0,4.353-9.845c0-.13,0-.252,0-.373a11.354,11.354,0,0,1,2.432,7.123,11.086,11.086,0,0,1-3.73,8.468A18.7,18.7,0,0,0,31.8,13.109m-.789,1.423c.113.143.223.288.329.437-.107-.148-.217-.293-.329-.437M16.952,24.765V9.53a12.043,12.043,0,0,1,6.856.023V24.765Zm-1.426-14.74v14.74h-9.5a18.039,18.039,0,0,1,2.87-9.1,14.714,14.714,0,0,1,6.63-5.637M5.135,9.087A11.6,11.6,0,0,0,8.619,13.44,18.809,18.809,0,0,0,5.694,18.9a9.906,9.906,0,0,1-3.118-3.768,11.815,11.815,0,0,1-1.152-5.118A11.342,11.342,0,0,1,3.855,2.89c0,.125,0,.25,0,.373A13.727,13.727,0,0,0,5.135,9.087M35.387,26.44a.075.075,0,0,0,.03-.007l.01,0H36.3a.767.767,0,0,1,0,1.515H4.385a.767.767,0,0,1,0-1.515h.87l.011,0a.082.082,0,0,0,.03.007ZM10.879,13.16c.1-.1.2-.2.3-.3-.1.1-.2.2-.3.3M12.552,11.7c.11-.082.223-.163.335-.243-.113.08-.225.162-.335.243m1.8-1.147c.145-.078.294-.152.442-.225-.148.073-.3.147-.442.225M9.374,14.932c.11-.15.221-.3.335-.442-.114.145-.225.292-.335.442M8.109,16.95c.107-.2.218-.4.332-.6-.116.2-.225.395-.332.6M6.065,23.889c.021-.23.046-.457.074-.683-.029.227-.053.455-.074.683m.387-2.463c.047-.21.1-.418.151-.625-.054.208-.1.417-.151.625M7.143,19.1c.074-.2.15-.4.23-.588-.08.195-.157.39-.23.588" transform="translate(0 0)" fill="#fff"/>
    <path id="Path_27" data-name="Path 27" d="M14.812,5.922a2.017,2.017,0,0,0-1.841,2.152,2.017,2.017,0,0,0,1.841,2.152,2.017,2.017,0,0,0,1.84-2.152,2.017,2.017,0,0,0-1.84-2.152m.415,2.152a.421.421,0,1,1-.415-.487.456.456,0,0,1,.415.487" transform="translate(5.53 3.948)" fill="#fff"/>
    <path id="Path_28" data-name="Path 28" d="M14.812,8.8a2.017,2.017,0,0,0-1.841,2.152A2.017,2.017,0,0,0,14.812,13.1a2.017,2.017,0,0,0,1.84-2.152A2.017,2.017,0,0,0,14.812,8.8m.415,2.152a.421.421,0,1,1-.415-.487.456.456,0,0,1,.415.487" transform="translate(5.53 5.866)" fill="#fff"/>
    <path id="Path_29" data-name="Path 29" d="M14.812,11.677a2.016,2.016,0,0,0-1.841,2.15,2.017,2.017,0,0,0,1.841,2.152,2.017,2.017,0,0,0,1.84-2.152,2.016,2.016,0,0,0-1.84-2.15m.415,2.15a.421.421,0,1,1-.415-.487.456.456,0,0,1,.415.487" transform="translate(5.53 7.785)" fill="#fff"/>
    <path id="Path_30" data-name="Path 30" d="M6.578,18.714a1.13,1.13,0,0,0,0,2.232,1.13,1.13,0,0,0,0-2.232" transform="translate(2.398 12.476)" fill="#fff"/>
    <path id="Path_31" data-name="Path 31" d="M10.541,18.714a1.13,1.13,0,0,0,0,2.232,1.13,1.13,0,0,0,0-2.232" transform="translate(4.087 12.476)" fill="#fff"/>
    <path id="Path_32" data-name="Path 32" d="M14.25,18.714a1.13,1.13,0,0,0,0,2.232,1.13,1.13,0,0,0,0-2.232" transform="translate(5.668 12.476)" fill="#fff"/>
    <path id="Path_33" data-name="Path 33" d="M18.213,18.714a1.13,1.13,0,1,0,.954,1.115,1.045,1.045,0,0,0-.954-1.115" transform="translate(7.358 12.476)" fill="#fff"/>
    <path id="Path_34" data-name="Path 34" d="M22.049,18.714A1.13,1.13,0,1,0,23,19.829a1.045,1.045,0,0,0-.954-1.115" transform="translate(8.993 12.476)" fill="#fff"/>
  </g>
</svg>
