<svg id="Group_50" data-name="Group 50" xmlns="http://www.w3.org/2000/svg" xmlns:xlink="http://www.w3.org/1999/xlink" width="40" height="40" viewBox="0 0 40 40">
  <defs>
    <clipPath id="clip-path">
      <rect id="Rectangle_40" data-name="Rectangle 40" width="40" height="40" fill="#fff"/>
    </clipPath>
  </defs>
  <g id="Group_49" data-name="Group 49" clip-path="url(#clip-path)">
    <path id="Path_39" data-name="Path 39" d="M4.987,15.163a.855.855,0,1,1-.877.855.867.867,0,0,1,.877-.855" transform="translate(2.917 10.109)" fill="#fff"/>
    <path id="Path_40" data-name="Path 40" d="M.877,11.372a.855.855,0,1,1,0,1.71.855.855,0,1,1,0-1.71" transform="translate(0 7.581)" fill="#fff"/>
    <path id="Path_41" data-name="Path 41" d="M1.456,18.532a.855.855,0,1,1,0,1.71.855.855,0,1,1,0-1.71" transform="translate(0.411 12.355)" fill="#fff"/>
    <path id="Path_42" data-name="Path 42" d="M5.244,21.007a.855.855,0,1,1-.877.855.867.867,0,0,1,.877-.855" transform="translate(3.1 14.005)" fill="#fff"/>
    <path id="Path_43" data-name="Path 43" d="M19.54,21.52a.855.855,0,1,1-.877.855.867.867,0,0,1,.877-.855" transform="translate(13.246 14.347)" fill="#fff"/>
    <path id="Path_44" data-name="Path 44" d="M21.982,17.277a.855.855,0,1,1-.877.855.867.867,0,0,1,.877-.855" transform="translate(14.98 11.518)" fill="#fff"/>
    <path id="Path_45" data-name="Path 45" d="M16.144,4.243a.855.855,0,1,1-.877.855.867.867,0,0,1,.877-.855" transform="translate(10.836 2.829)" fill="#fff"/>
    <path id="Path_46" data-name="Path 46" d="M11.8.513a.867.867,0,0,1,.877.855.877.877,0,0,1-1.754,0A.867.867,0,0,1,11.8.513" transform="translate(7.753 0.342)" fill="#fff"/>
    <path id="Path_47" data-name="Path 47" d="M20.566,1.723a.855.855,0,1,1-.877.855.867.867,0,0,1,.877-.855" transform="translate(13.975 1.149)" fill="#fff"/>
    <path id="Path_48" data-name="Path 48" d="M11.531,17.257l4.242,3a2.15,2.15,0,0,0,2.512,0,2.02,2.02,0,0,0,.776-2.328l-1.619-4.86,4.24-3a2.024,2.024,0,0,0,.776-2.33A2.1,2.1,0,0,0,20.425,6.3h-5.24L13.564,1.44a2.154,2.154,0,0,0-4.064,0L7.879,6.3H2.638A2.1,2.1,0,0,0,.605,7.738a2.022,2.022,0,0,0,.776,2.33l4.24,3L4,17.932a2.02,2.02,0,0,0,.776,2.328,2.144,2.144,0,0,0,2.512,0ZM5.81,18.877a.347.347,0,0,1-.138-.417l1.816-5.45a.842.842,0,0,0-.318-.957L2.413,8.685a.347.347,0,0,1-.138-.417.359.359,0,0,1,.364-.258H8.517a.876.876,0,0,0,.834-.592l1.817-5.45a.385.385,0,0,1,.727,0l1.817,5.45a.876.876,0,0,0,.834.592h5.878a.359.359,0,0,1,.364.258.347.347,0,0,1-.138.417l-4.757,3.368a.842.842,0,0,0-.318.957l1.816,5.45a.347.347,0,0,1-.138.417.368.368,0,0,1-.45,0l-4.757-3.368a.9.9,0,0,0-1.031,0L6.26,18.877a.368.368,0,0,1-.45,0" transform="translate(0.352)" fill="#fff"/>
    <path id="Path_49" data-name="Path 49" d="M22.688,19.011H18.735l-1.222-3.667a1.877,1.877,0,0,0-3.541,0l-1.221,3.667H8.8a1.829,1.829,0,0,0-1.77,1.253A1.76,1.76,0,0,0,7.7,22.293l3.2,2.267L9.678,28.224a1.763,1.763,0,0,0,.677,2.028,1.871,1.871,0,0,0,2.189,0l3.2-2.265,3.2,2.265a1.867,1.867,0,0,0,2.187,0,1.763,1.763,0,0,0,.677-2.028l-1.222-3.665,3.2-2.267a1.763,1.763,0,0,0,.677-2.028,1.831,1.831,0,0,0-1.771-1.253m.063,1.9-3.715,2.632a.842.842,0,0,0-.318.955l1.419,4.257a.089.089,0,0,1-.039.117.091.091,0,0,1-.125,0l-3.715-2.63a.9.9,0,0,0-1.031,0l-3.715,2.63a.09.09,0,0,1-.125,0,.088.088,0,0,1-.038-.117L12.766,24.5a.84.84,0,0,0-.318-.955L8.733,20.909a.09.09,0,0,1-.038-.117.091.091,0,0,1,.1-.072h4.592a.877.877,0,0,0,.834-.59l1.417-4.257a.108.108,0,0,1,.2,0l1.419,4.257a.877.877,0,0,0,.834.59h4.591a.092.092,0,0,1,.1.072.088.088,0,0,1-.039.117" transform="translate(4.92 9.394)" fill="#fff"/>
    <path id="Path_50" data-name="Path 50" d="M29.442,11.011a1.653,1.653,0,0,0-1.6-1.135H24.71l-.968-2.9a1.7,1.7,0,0,0-3.2,0l-.968,2.9H16.441a1.66,1.66,0,0,0-1.6,1.135,1.6,1.6,0,0,0,.612,1.837l2.534,1.793-.968,2.9a1.594,1.594,0,0,0,.612,1.835,1.694,1.694,0,0,0,1.982,0l2.53-1.793,2.534,1.793a1.694,1.694,0,0,0,1.982,0,1.6,1.6,0,0,0,.612-1.835l-.968-2.9,2.53-1.793a1.592,1.592,0,0,0,.612-1.837m-4.69,2.612a.843.843,0,0,0-.32.957l1.1,3.293-2.874-2.035a.9.9,0,0,0-1.033,0l-2.874,2.035,1.1-3.293a.845.845,0,0,0-.318-.957l-2.876-2.035H20.21A.874.874,0,0,0,21.042,11L22.14,7.7,23.238,11a.882.882,0,0,0,.836.592h3.551Z" transform="translate(10.471 3.893)" fill="#fff"/>
  </g>
</svg>
