<svg id="Group_34" data-name="Group 34" xmlns="http://www.w3.org/2000/svg" xmlns:xlink="http://www.w3.org/1999/xlink" width="40" height="40" viewBox="0 0 40 40">
  <defs>
    <clipPath id="clip-path">
      <rect id="Rectangle_34" data-name="Rectangle 34" width="40" height="40" fill="#fff"/>
    </clipPath>
  </defs>
  <g id="Group_33" data-name="Group 33" clip-path="url(#clip-path)">
    <path id="Path_25" data-name="Path 25" d="M40,22.7c0-6.2-4.165-11.243-9.286-11.243a8.182,8.182,0,0,0-5.1,1.848,40.57,40.57,0,0,0-1.539-5.86C22.39,2.645,20.181,0,17.858,0s-4.537,2.635-6.222,7.418a39.787,39.787,0,0,0-1.473,5.515L7.831,2.583a.749.749,0,0,0-.688-.637.751.751,0,0,0-.69.637L.025,31.123a1.013,1.013,0,0,0,.121.753.682.682,0,0,0,.567.34H6.428v6.918A.8.8,0,0,0,7.143,40a.8.8,0,0,0,.714-.865V32.217h5.714a.68.68,0,0,0,.567-.34,1,1,0,0,0,.143-.607,7.358,7.358,0,0,0,2.862.91v6.955a.727.727,0,1,0,1.427,0V32.18A7.853,7.853,0,0,0,23.448,29.7,8.942,8.942,0,0,0,30,33.912v5.223a.728.728,0,1,0,1.429,0V33.913C36.216,33.47,40,28.612,40,22.7M12.637,30.487H7.857V29.115l1.264-1.53a1,1,0,0,0,0-1.223.63.63,0,0,0-1.01,0l-.253.307V20.973a.8.8,0,0,0-.714-.865.8.8,0,0,0-.714.865v3.965L5.5,23.822a.63.63,0,0,0-1.01,0,1,1,0,0,0,0,1.222l1.934,2.342v3.1H1.649L7.143,6.1l2.42,10.743a44.976,44.976,0,0,0-.289,4.983,11.3,11.3,0,0,0,3.242,8.128Zm5.934-1.372,2.648-3.207a1,1,0,0,0,0-1.222.63.63,0,0,0-1.01,0l-1.638,1.982V23.062L20.5,20.72a1,1,0,0,0,0-1.223.63.63,0,0,0-1.01,0l-.924,1.118V18.378a.727.727,0,1,0-1.427,0v6.56l-1.638-1.982a.63.63,0,0,0-1.01,0,1,1,0,0,0,0,1.222l2.648,3.207v3.058c-3.611-.435-6.441-4.135-6.441-8.618A43.677,43.677,0,0,1,12.95,8.1C14.375,4.05,16.163,1.73,17.858,1.73s3.478,2.332,4.906,6.395a43.683,43.683,0,0,1,2.248,13.7c0,4.483-2.83,8.183-6.441,8.618Zm12.858,3.062V30.845l2.648-3.207a1,1,0,0,0,0-1.223.632.632,0,0,0-1.01,0L31.429,28.4V22.7A.728.728,0,1,0,30,22.7v3.965l-1.638-1.982a.63.63,0,0,0-1.01,0,1,1,0,0,0,0,1.222L30,29.115v3.062a7.638,7.638,0,0,1-5.542-3.718,11.733,11.733,0,0,0,1.982-6.633,45.923,45.923,0,0,0-.512-6.667,7.036,7.036,0,0,1,4.786-1.968c4.333,0,7.857,4.267,7.857,9.513,0,4.953-3.144,9.035-7.143,9.473" transform="translate(0 0)" fill="#fff"/>
  </g>
</svg>
