<svg id="Group_30" data-name="Group 30" xmlns="http://www.w3.org/2000/svg" xmlns:xlink="http://www.w3.org/1999/xlink" width="40" height="40" viewBox="0 0 40 40">
  <defs>
    <clipPath id="clip-path">
      <rect id="Rectangle_30" data-name="Rectangle 30" width="40" height="40" fill="#fff"/>
    </clipPath>
  </defs>
  <g id="Group_29" data-name="Group 29" clip-path="url(#clip-path)">
    <path id="Path_21" data-name="Path 21" d="M39.879,20.64c-.1-.343-.306-.555-.527-.548H29.023L26.389,9.315C26.041,7.838,25.2,6.892,24.281,6.94H21.752V1.1c0-.607-.284-1.1-.633-1.1s-.633.49-.633,1.1V6.94H16.8c-.339.045-.607.51-.633,1.1v2.74H14.058l-.949-8.95c-.063-.522-.325-.9-.632-.913H7.1c-.211,0-.316.183-.527.365a.9.9,0,0,0-.106.913l.949,8.585H5.732c-.318-.043-.6.362-.632.913l-.738,8.4H.673a.683.683,0,0,0-.527.365,1.264,1.264,0,0,0-.106.913l.633,5.662,1.054,8.585c.3,2.525,1.569,4.35,3.056,4.383H31.026c1.374-.027,2.646-1.265,3.372-3.287l5.481-14.978a1.323,1.323,0,0,0,0-1.1M12.793,10.593H8.682L8.261,6.575h4Zm-.842-7.67.1,1.46h-4L7.84,2.923Zm21.5,32.693c-.492,1.395-1.375,2.23-2.319,2.192H4.888c-.888-.038-1.657-1.075-1.9-2.557l-.843-7.307H34.083c.349,0,.633-.488.634-1.093s-.282-1.1-.631-1.1H1.938l-.422-3.47H25.967c.349,0,.633-.488.634-1.093s-.282-1.1-.631-1.1H5.732l.633-7.123H16.9c.339-.043.608-.51.633-1.1V8.95h6.85c.425-.062.818.393.949,1.1l.527,2.373h-5.9c-.494.037-.878.762-.857,1.618,0,.07.006.14.013.208l.211,1.643c.084.68.443,1.148.843,1.1h6.745l1.159,4.567v.365H38.193Z" transform="translate(0)" fill="#fff"/>
  </g>
</svg>
