<svg xmlns="http://www.w3.org/2000/svg" xmlns:xlink="http://www.w3.org/1999/xlink" width="40" height="40" viewBox="0 0 40 40">
  <defs>
    <clipPath id="clip-path">
      <rect id="Rectangle_44" data-name="Rectangle 44" width="40" height="40" fill="#fff"/>
    </clipPath>
  </defs>
  <g id="Group_58" data-name="Group 58" transform="translate(0 0)">
    <g id="Group_57" data-name="Group 57" transform="translate(0 0)" clip-path="url(#clip-path)">
      <path id="Path_115" data-name="Path 115" d="M2.023,0c.036,0,.073,0,.109.005C6.123.314,8.172,1.8,8.866,2.43l.044.039H22.184c.335,0,.61.386.61.862s-.274.862-.61.862H9.328V5.625H30.687V4.194H28.171c-.335,0-.608-.386-.608-.862s.273-.862.608-.862H31.1l.044-.039C31.843,1.8,33.891.314,37.882.005Q37.936,0,37.99,0a1.767,1.767,0,0,1,1.381.778A3.51,3.51,0,0,1,40,2.844V6.976a3.51,3.51,0,0,1-.629,2.066,1.765,1.765,0,0,1-1.381.778q-.054,0-.107-.005c-3.993-.309-6.04-1.8-6.735-2.425L31.1,7.349h-.5l.1.348a4.548,4.548,0,0,1-.122,2.873L25.979,22.2l-.023.057v7.455l.078.076a9.074,9.074,0,0,1,1.354,1.7,12.6,12.6,0,0,1,1.7,4.721l.035.226.161-.029a2.2,2.2,0,0,1,.354-.03,2.532,2.532,0,0,1,2.038,1.2,1.455,1.455,0,0,0,1.177.692,1.47,1.47,0,0,0,1.188-.707,2.337,2.337,0,0,1,4.091.027,1.453,1.453,0,0,0,1.174.687l.089,0c.329,0,.6.365.608.829a1.08,1.08,0,0,1-.161.619.552.552,0,0,1-.424.275L39.3,40a2.581,2.581,0,0,1-2.057-1.22,1.453,1.453,0,0,0-1.174-.687,1.472,1.472,0,0,0-1.189.707,2.334,2.334,0,0,1-4.078-.008,1.458,1.458,0,0,0-1.177-.692,1.265,1.265,0,0,0-.75.253,1.875,1.875,0,0,0-.438.454,2.336,2.336,0,0,1-4.073,0,1.484,1.484,0,0,0-1.2-.7,1.469,1.469,0,0,0-1.185.7,2.525,2.525,0,0,1-2.04,1.193,2.186,2.186,0,0,1-1.23-.39l-.109-.079-.08.228.031-.265a3.232,3.232,0,0,1-.65-.7,1.7,1.7,0,0,0-.631-.56,1.23,1.23,0,0,0-.546-.132,1.322,1.322,0,0,0-.884.361,2.8,2.8,0,0,0-.351.405c-.06.079-.12.16-.185.235a2.388,2.388,0,0,1-1.8.9,2.347,2.347,0,0,1-1.689-.775,3.664,3.664,0,0,1-.268-.324,3.144,3.144,0,0,0-.376-.437,1.327,1.327,0,0,0-.9-.37,1.469,1.469,0,0,0-1.187.705,2.525,2.525,0,0,1-2.04,1.193,2.533,2.533,0,0,1-2.039-1.2A1.455,1.455,0,0,0,3.833,38.1a1.467,1.467,0,0,0-1.187.707A2.526,2.526,0,0,1,.61,40C.273,40,0,39.614,0,39.138s.273-.861.61-.861A1.471,1.471,0,0,0,1.8,37.57a2.525,2.525,0,0,1,2.041-1.195,2.529,2.529,0,0,1,2.038,1.2,1.464,1.464,0,0,0,1.177.694,1.471,1.471,0,0,0,1.188-.709,2.521,2.521,0,0,1,2.035-1.19,2.129,2.129,0,0,1,.45.049l.167.037.036-.233a12.6,12.6,0,0,1,1.681-4.709,9.045,9.045,0,0,1,1.37-1.727l.078-.074V22.258l-.023-.057-4.6-11.632a4.459,4.459,0,0,1-.3-1.62A4.549,4.549,0,0,1,9.306,7.7l.1-.349h-.5l-.044.041c-.694.626-2.741,2.116-6.734,2.425q-.054.005-.107.005A1.765,1.765,0,0,1,.643,9.041,3.51,3.51,0,0,1,.014,6.976V2.844A3.51,3.51,0,0,1,.643.778,1.765,1.765,0,0,1,2.023,0m0,8.095.038,0h0A10.778,10.778,0,0,0,8.018,6.1l.091-.073V3.792L8.018,3.72a10.853,10.853,0,0,0-6-2,.687.687,0,0,0-.542.307,1.357,1.357,0,0,0-.248.814V6.976a1.364,1.364,0,0,0,.248.814.683.683,0,0,0,.542.305m35.965,0h0a.683.683,0,0,0,.542-.305,1.364,1.364,0,0,0,.248-.814V2.844a1.373,1.373,0,0,0-.248-.815.7.7,0,0,0-.58-.3h0A10.8,10.8,0,0,0,32,3.718l-.091.073V6.027L32,6.1a10.805,10.805,0,0,0,5.954,1.993l.038,0M17.271,17.151a2.174,2.174,0,0,1-1.884-1.566L12.469,8.169a1.255,1.255,0,0,0-.724-.775.816.816,0,0,0-.266-.046.913.913,0,0,0-.629.273,1.857,1.857,0,0,0-.5,1.327,2.128,2.128,0,0,0,.146.78l4.7,11.884a1.182,1.182,0,0,1,.078.422V28.78l.242-.132a5.947,5.947,0,0,1,1.069-.446l.062-.02.067-.019.045-.012a6.668,6.668,0,0,0,2.874-1.659.509.509,0,0,1,.375-.177.467.467,0,0,1,.283.1l.089.083a6.78,6.78,0,0,0,2.887,1.659l.044.014.049.014a5.906,5.906,0,0,1,1.135.466l.242.13V22.034a1.166,1.166,0,0,1,.078-.42l4.7-11.887a2.041,2.041,0,0,0-.354-2.1.908.908,0,0,0-.627-.273.811.811,0,0,0-.266.046,1.254,1.254,0,0,0-.724.776l-2.918,7.414a2.176,2.176,0,0,1-1.884,1.566H17.271m3.328-9.8H13.54l.148.376,2.763,7.021a1.082,1.082,0,0,0,.554.626l.465.2-.264-.577a6.166,6.166,0,0,1-.537-2.562c0-2.169,1.038-4.052,2.525-4.581a2.772,2.772,0,0,1,.812-.162,2.772,2.772,0,0,1,.812.162c1.486.528,2.526,2.412,2.526,4.581a6.185,6.185,0,0,1-.537,2.562l-.264.574.464-.192a1.08,1.08,0,0,0,.554-.624l2.764-7.023.148-.376H20.6m-.592,8.078c1.169,0,2.12-1.345,2.12-3s-.951-3-2.12-3-2.12,1.345-2.12,3,.951,3,2.12,3m0,16.267c-.336,0-.61-.386-.61-.862V28.7l-.254.165c-.1.066-.206.132-.317.2A7.492,7.492,0,0,1,17,29.843a5.41,5.41,0,0,0-.791.29c-2.158,1.021-3.788,3.745-4.15,6.942l-.017.142.079.093c.057.068.112.138.167.209a2.419,2.419,0,0,0,.457.493,1.289,1.289,0,0,0,.763.263,1.354,1.354,0,0,0,.916-.386c.036-.034.072-.073.135-.142a1.957,1.957,0,0,0,.138-.179,2.525,2.525,0,0,1,2.04-1.193,2.162,2.162,0,0,1,1.014.262,3,3,0,0,1,1.024.94,1.9,1.9,0,0,0,.422.435,1.274,1.274,0,0,0,.755.257,1.472,1.472,0,0,0,1.189-.707,3.3,3.3,0,0,1,.571-.628,2.28,2.28,0,0,1,1.464-.562,2.4,2.4,0,0,1,1.742.827,3.579,3.579,0,0,1,.314.39,1.456,1.456,0,0,0,1.174.687,1.333,1.333,0,0,0,.914-.386,2.865,2.865,0,0,0,.341-.4c.072-.095.142-.191.22-.275l.086-.093-.018-.15a10.642,10.642,0,0,0-1.472-4.341,7.213,7.213,0,0,0-1.5-1.749,5.2,5.2,0,0,0-1.851-1.008l-.143-.042c-.152-.044-.3-.088-.452-.142a7.843,7.843,0,0,1-1.653-.824l-.254-.167V30.83c0,.476-.273.862-.61.862" transform="translate(0 0)" fill="#fff"/>
    </g>
  </g>
</svg>
