<svg id="Group_60" data-name="Group 60" xmlns="http://www.w3.org/2000/svg" xmlns:xlink="http://www.w3.org/1999/xlink" width="40" height="40" viewBox="0 0 40 40">
  <defs>
    <clipPath id="clip-path">
      <rect id="Rectangle_45" data-name="Rectangle 45" width="40" height="40" fill="#fff"/>
    </clipPath>
  </defs>
  <g id="Group_59" data-name="Group 59" clip-path="url(#clip-path)">
    <path id="Path_116" data-name="Path 116" d="M39.847,38.495a17.57,17.57,0,0,0-3.588-4.338C38.538,30.8,39.675,25.6,39.4,19.64,39.1,13.387,37.278,7.508,34.506,3.915A9.233,9.233,0,0,0,28.663.088c-2.4-.373-4.961.442-7.6,2.418a3.927,3.927,0,0,0-1.7,2.352,13.69,13.69,0,0,0,.132,5.073v0a5.387,5.387,0,0,1-1.082,4.6,1.3,1.3,0,0,0-.362,1.35,1,1,0,0,0,1.015.585,7.681,7.681,0,0,0,6.991-3.773,13.286,13.286,0,0,0,1.654-5.01c.009-.057.018-.12.027-.173.081-.1.211-.175.492-.128,1.359.225,3.821,2.89,4.744,6.718A12.309,12.309,0,0,1,29.9,25.493,5.072,5.072,0,0,0,28,21.523c-1.411-1.132-3.406-1.608-5.52-2.112a28.324,28.324,0,0,1-3.927-1.137c-5.027-2.015-6.413-3.828-7.317-5.368a.759.759,0,0,0-.694-.393.783.783,0,0,0-.654.472c-1.106,2.407-.174,5.632.63,7.623-2.456-1.47-5.186-5.922-5.613-9.013a.818.818,0,0,0-.727-.737.8.8,0,0,0-.8.638,20.92,20.92,0,0,0,.022,11.347L1.438,21.59a.714.714,0,0,0-.8.013.9.9,0,0,0-.37.787c.281,5.88,1.685,9.532,3.059,11.735a4.923,4.923,0,0,0-2.443,2.34A8.654,8.654,0,0,0,.012,38.98a.945.945,0,0,0,.171.712A.755.755,0,0,0,.78,40h0l38.439-.12a.773.773,0,0,0,.694-.478.948.948,0,0,0-.069-.907M20.293,14.647a6.822,6.822,0,0,0,.852-3.153,2.3,2.3,0,0,0,.653.093,2.663,2.663,0,0,0,.424-.035,6.456,6.456,0,0,0,2.2-.98,6.417,6.417,0,0,1,1.151-.607c-.949,2.78-2.691,4.325-5.274,4.682M1.943,23.913l3.415,2.175A14.883,14.883,0,0,0,9.07,28.233a.705.705,0,0,0,.263.052.788.788,0,0,0,.735-.575A.9.9,0,0,0,9.6,26.6a13.375,13.375,0,0,1-3.329-1.922c-1.715-1.8-2.411-5.433-1.94-9.58,1.594,3.737,4.788,7.745,7.7,7.745a.773.773,0,0,0,.681-.445.957.957,0,0,0-.015-.88,14.1,14.1,0,0,1-1.75-6.17c1.148,1.41,3.065,2.957,7.081,4.565a29.06,29.06,0,0,0,4.129,1.2c1.947.465,3.788.9,4.933,1.823.784.628,1.615,1.708,1.081,4.493a.912.912,0,0,0,.353.922.719.719,0,0,0,.9-.06c6.157-5.463,5.813-11.518,5.059-14.642A14.609,14.609,0,0,0,31.919,8.22a6.283,6.283,0,0,0-3.459-2.558A1.947,1.947,0,0,0,26.352,6.68l-.016.032a2.121,2.121,0,0,0-.165.687c-.04.27-.085.532-.135.787a2.027,2.027,0,0,0-.789.073,6.774,6.774,0,0,0-1.576.785c-1.375.833-2.044,1.12-2.67.368-.621-4.3-.064-4.715.932-5.462,5.521-4.137,9.239-1.687,11.387,1.1,2.555,3.312,4.243,8.8,4.517,14.682.266,5.7-.885,10.793-3.089,13.755-.016,0-.033,0-.049-.007s-.051-.007-.076-.008l-.069-.005c-.024,0-.049,0-.075-.007s-.042,0-.064,0l-.07,0-.007,0c-.06,0-.12,0-.178.005l-.064.005c-.054,0-.109.01-.163.018l-.076.01-.1.018c-.043.007-.085.015-.129.025l-.094.02-.106.027-.051.013c-.07.018-.139.037-.21.058l-.016,0c-.171.05-.341.1-.515.162-.268.088-.551.182-.858.263l-.037.008q-.049.015-.1.025l-.066.017-.07.017-.088.02-.025.005c-.129.027-.263.053-.4.073l0,0-.145.02-.007,0a6.855,6.855,0,0,1-.795.055l-.037,0h-.121c-.078,0-.157,0-.236-.005l-.09-.005c-.063,0-.127-.007-.192-.012l-.093-.005c-.081-.007-.163-.015-.244-.025-.039,0-.079-.008-.118-.013-.067-.008-.135-.018-.2-.028l-.15-.022-.195-.033-.121-.023c-.091-.017-.186-.037-.28-.057l-.073-.017-.25-.058L27.537,34c-.108-.027-.216-.055-.325-.085a12.309,12.309,0,0,0-3.227-.547,5.256,5.256,0,0,0-2.291.517,3.917,3.917,0,0,1-1.736.4,11.026,11.026,0,0,1-2.845-.493,12.5,12.5,0,0,0-3.357-.53,8.34,8.34,0,0,0-3.2.672,5.624,5.624,0,0,1-2.115.49,6.4,6.4,0,0,1-1.89-.328,5.778,5.778,0,0,0-1.462-.265C4.016,32.37,2.444,29.36,1.943,23.913M1.829,38.258C2.221,37.16,3.1,35.57,4.89,35.57a4.214,4.214,0,0,1,1.242.2,7.763,7.763,0,0,0,2.309.393,6.93,6.93,0,0,0,2.613-.582,6.947,6.947,0,0,1,2.7-.58,11.114,11.114,0,0,1,2.977.477,12.36,12.36,0,0,0,3.225.547,5.287,5.287,0,0,0,2.293-.517,3.881,3.881,0,0,1,1.735-.4,11.026,11.026,0,0,1,2.845.493c.13.037.257.07.383.1l.049.013q.173.042.341.08l.079.018c.106.023.211.043.314.063l.091.017c.1.018.205.037.307.052l.076.012c.109.017.217.032.323.043l.043.005a9.545,9.545,0,0,0,1.093.065,9.373,9.373,0,0,0,3.143-.58,5.753,5.753,0,0,1,1.075-.285l.006,0c.03,0,.06-.005.088-.007l.025,0a1.516,1.516,0,0,1,.338.022l.03.007.036.008c.593.148,1.431.775,2.968,2.912Z" transform="translate(0 0)" fill="#fff"/>
  </g>
</svg>
